<mxfile host="app.diagrams.net" modified="2024-03-02T02:08:58.317Z" agent="Mozilla/5.0 (Macintosh; Intel Mac OS X 10_15_7) AppleWebKit/537.36 (KHTML, like Gecko) Chrome/122.0.0.0 Safari/537.36" etag="CexBH_GbrDhTbaDuEkl8" version="24.0.0" type="device">
  <diagram name="Page-1" id="IuqSY_MK_nT0XhWIDYYG">
    <mxGraphModel dx="984" dy="659" grid="1" gridSize="10" guides="1" tooltips="1" connect="1" arrows="1" fold="1" page="1" pageScale="1" pageWidth="850" pageHeight="1100" math="0" shadow="0">
      <root>
        <mxCell id="0" />
        <mxCell id="1" parent="0" />
        <mxCell id="HR1eYqBwxYu_AbdQYwiq-35" value="" style="group" vertex="1" connectable="0" parent="1">
          <mxGeometry x="487" y="316" width="170" height="90" as="geometry" />
        </mxCell>
        <mxCell id="HR1eYqBwxYu_AbdQYwiq-28" value="" style="rounded=1;whiteSpace=wrap;html=1;" vertex="1" parent="HR1eYqBwxYu_AbdQYwiq-35">
          <mxGeometry width="170" height="90" as="geometry" />
        </mxCell>
        <mxCell id="HR1eYqBwxYu_AbdQYwiq-32" value="" style="image;html=1;image=img/lib/clip_art/computers/Database_128x128.png" vertex="1" parent="HR1eYqBwxYu_AbdQYwiq-35">
          <mxGeometry x="120" y="32.4" width="41" height="46.125" as="geometry" />
        </mxCell>
        <mxCell id="HR1eYqBwxYu_AbdQYwiq-33" style="edgeStyle=orthogonalEdgeStyle;rounded=0;orthogonalLoop=1;jettySize=auto;html=1;exitX=1;exitY=0.5;exitDx=0;exitDy=0;entryX=0;entryY=0.5;entryDx=0;entryDy=0;" edge="1" parent="HR1eYqBwxYu_AbdQYwiq-35" source="HR1eYqBwxYu_AbdQYwiq-34" target="HR1eYqBwxYu_AbdQYwiq-32">
          <mxGeometry relative="1" as="geometry" />
        </mxCell>
        <mxCell id="HR1eYqBwxYu_AbdQYwiq-34" value="" style="image;html=1;image=img/lib/clip_art/computers/Database_128x128.png" vertex="1" parent="HR1eYqBwxYu_AbdQYwiq-35">
          <mxGeometry x="16" y="32.4" width="39" height="46.125" as="geometry" />
        </mxCell>
        <mxCell id="HR1eYqBwxYu_AbdQYwiq-31" style="edgeStyle=orthogonalEdgeStyle;rounded=0;orthogonalLoop=1;jettySize=auto;html=1;exitX=0;exitY=0.5;exitDx=0;exitDy=0;" edge="1" parent="HR1eYqBwxYu_AbdQYwiq-35" source="HR1eYqBwxYu_AbdQYwiq-32" target="HR1eYqBwxYu_AbdQYwiq-34">
          <mxGeometry relative="1" as="geometry" />
        </mxCell>
        <mxCell id="HR1eYqBwxYu_AbdQYwiq-184" value="Database Cluster" style="text;html=1;align=center;verticalAlign=middle;whiteSpace=wrap;rounded=0;" vertex="1" parent="HR1eYqBwxYu_AbdQYwiq-35">
          <mxGeometry x="55" y="8.4" width="60" height="27" as="geometry" />
        </mxCell>
        <mxCell id="HR1eYqBwxYu_AbdQYwiq-44" value="" style="group" vertex="1" connectable="0" parent="1">
          <mxGeometry x="202" y="306" width="120" height="70" as="geometry" />
        </mxCell>
        <mxCell id="HR1eYqBwxYu_AbdQYwiq-40" value="" style="rounded=1;whiteSpace=wrap;html=1;" vertex="1" parent="HR1eYqBwxYu_AbdQYwiq-44">
          <mxGeometry y="-23.333333333333336" width="120" height="93.33333333333334" as="geometry" />
        </mxCell>
        <mxCell id="HR1eYqBwxYu_AbdQYwiq-41" value="" style="sketch=0;outlineConnect=0;fontColor=#232F3E;gradientColor=none;fillColor=#E7157B;strokeColor=none;dashed=0;verticalLabelPosition=bottom;verticalAlign=top;align=center;html=1;fontSize=12;fontStyle=0;aspect=fixed;pointerEvents=1;shape=mxgraph.aws4.endpoint;" vertex="1" parent="HR1eYqBwxYu_AbdQYwiq-44">
          <mxGeometry x="12.5" y="20" width="40" height="40" as="geometry" />
        </mxCell>
        <mxCell id="HR1eYqBwxYu_AbdQYwiq-42" value="" style="sketch=0;outlineConnect=0;fontColor=#232F3E;gradientColor=none;fillColor=#E7157B;strokeColor=none;dashed=0;verticalLabelPosition=bottom;verticalAlign=top;align=center;html=1;fontSize=12;fontStyle=0;aspect=fixed;pointerEvents=1;shape=mxgraph.aws4.endpoint;" vertex="1" parent="HR1eYqBwxYu_AbdQYwiq-44">
          <mxGeometry x="68" y="20" width="39.99" height="39.99" as="geometry" />
        </mxCell>
        <mxCell id="HR1eYqBwxYu_AbdQYwiq-56" value="API Gateway Cluster" style="text;html=1;align=center;verticalAlign=middle;whiteSpace=wrap;rounded=0;" vertex="1" parent="HR1eYqBwxYu_AbdQYwiq-44">
          <mxGeometry x="5" y="-30.333333333333336" width="110" height="58.333333333333336" as="geometry" />
        </mxCell>
        <mxCell id="HR1eYqBwxYu_AbdQYwiq-50" value="Federated Auth Services (Google, etc)" style="text;html=1;align=center;verticalAlign=middle;whiteSpace=wrap;rounded=0;" vertex="1" parent="1">
          <mxGeometry x="627" y="226" width="160.5" height="50" as="geometry" />
        </mxCell>
        <mxCell id="HR1eYqBwxYu_AbdQYwiq-60" value="" style="group" vertex="1" connectable="0" parent="1">
          <mxGeometry x="387" y="146" width="110" height="100" as="geometry" />
        </mxCell>
        <mxCell id="HR1eYqBwxYu_AbdQYwiq-57" value="" style="rounded=1;whiteSpace=wrap;html=1;" vertex="1" parent="HR1eYqBwxYu_AbdQYwiq-60">
          <mxGeometry y="10" width="110" height="90" as="geometry" />
        </mxCell>
        <mxCell id="HR1eYqBwxYu_AbdQYwiq-58" value="Identity Server" style="text;html=1;align=center;verticalAlign=middle;whiteSpace=wrap;rounded=0;" vertex="1" parent="HR1eYqBwxYu_AbdQYwiq-60">
          <mxGeometry x="10" width="90" height="50" as="geometry" />
        </mxCell>
        <mxCell id="HR1eYqBwxYu_AbdQYwiq-59" value="" style="sketch=0;outlineConnect=0;fontColor=#232F3E;gradientColor=none;fillColor=#DD344C;strokeColor=none;dashed=0;verticalLabelPosition=bottom;verticalAlign=top;align=center;html=1;fontSize=12;fontStyle=0;aspect=fixed;pointerEvents=1;shape=mxgraph.aws4.access_analyzer;" vertex="1" parent="HR1eYqBwxYu_AbdQYwiq-60">
          <mxGeometry x="28.680000000000007" y="38" width="50.65" height="50" as="geometry" />
        </mxCell>
        <mxCell id="HR1eYqBwxYu_AbdQYwiq-170" value="" style="group" vertex="1" connectable="0" parent="1">
          <mxGeometry x="337" y="466" width="470" height="290" as="geometry" />
        </mxCell>
        <mxCell id="HR1eYqBwxYu_AbdQYwiq-11" value="" style="rounded=1;whiteSpace=wrap;html=1;movable=1;resizable=1;rotatable=1;deletable=1;editable=1;locked=0;connectable=1;" vertex="1" parent="HR1eYqBwxYu_AbdQYwiq-170">
          <mxGeometry width="470" height="280" as="geometry" />
        </mxCell>
        <mxCell id="HR1eYqBwxYu_AbdQYwiq-128" value="" style="group" vertex="1" connectable="0" parent="HR1eYqBwxYu_AbdQYwiq-170">
          <mxGeometry x="30" y="20" width="420" height="270" as="geometry" />
        </mxCell>
        <mxCell id="HR1eYqBwxYu_AbdQYwiq-129" value="&lt;b&gt;K8s cluster for backend APIs of the Childcare app&lt;/b&gt;" style="text;html=1;align=center;verticalAlign=middle;whiteSpace=wrap;rounded=0;" vertex="1" parent="HR1eYqBwxYu_AbdQYwiq-128">
          <mxGeometry y="-8" width="290" height="30" as="geometry" />
        </mxCell>
        <mxCell id="HR1eYqBwxYu_AbdQYwiq-130" value="" style="group" vertex="1" connectable="0" parent="HR1eYqBwxYu_AbdQYwiq-128">
          <mxGeometry x="140" y="30" width="125" height="90" as="geometry" />
        </mxCell>
        <mxCell id="HR1eYqBwxYu_AbdQYwiq-131" value="" style="rounded=1;whiteSpace=wrap;html=1;" vertex="1" parent="HR1eYqBwxYu_AbdQYwiq-130">
          <mxGeometry width="125" height="90" as="geometry" />
        </mxCell>
        <mxCell id="HR1eYqBwxYu_AbdQYwiq-132" value="" style="aspect=fixed;sketch=0;html=1;dashed=0;whitespace=wrap;fillColor=#2875E2;strokeColor=#ffffff;points=[[0.005,0.63,0],[0.1,0.2,0],[0.9,0.2,0],[0.5,0,0],[0.995,0.63,0],[0.72,0.99,0],[0.5,1,0],[0.28,0.99,0]];shape=mxgraph.kubernetes.icon2;prIcon=api" vertex="1" parent="HR1eYqBwxYu_AbdQYwiq-130">
          <mxGeometry x="74.5" y="41.60000000000002" width="40" height="38.4" as="geometry" />
        </mxCell>
        <mxCell id="HR1eYqBwxYu_AbdQYwiq-133" value="" style="aspect=fixed;sketch=0;html=1;dashed=0;whitespace=wrap;fillColor=#2875E2;strokeColor=#ffffff;points=[[0.005,0.63,0],[0.1,0.2,0],[0.9,0.2,0],[0.5,0,0],[0.995,0.63,0],[0.72,0.99,0],[0.5,1,0],[0.28,0.99,0]];shape=mxgraph.kubernetes.icon2;prIcon=api" vertex="1" parent="HR1eYqBwxYu_AbdQYwiq-130">
          <mxGeometry x="14.5" y="41.60000000000002" width="40" height="38.4" as="geometry" />
        </mxCell>
        <mxCell id="HR1eYqBwxYu_AbdQYwiq-134" value="Content Management Service" style="text;html=1;align=center;verticalAlign=middle;whiteSpace=wrap;rounded=0;" vertex="1" parent="HR1eYqBwxYu_AbdQYwiq-130">
          <mxGeometry x="4.5" y="6" width="116.5" height="30" as="geometry" />
        </mxCell>
        <mxCell id="HR1eYqBwxYu_AbdQYwiq-135" style="edgeStyle=orthogonalEdgeStyle;rounded=0;orthogonalLoop=1;jettySize=auto;html=1;exitX=0.995;exitY=0.63;exitDx=0;exitDy=0;exitPerimeter=0;entryX=0.005;entryY=0.63;entryDx=0;entryDy=0;entryPerimeter=0;" edge="1" parent="HR1eYqBwxYu_AbdQYwiq-130" source="HR1eYqBwxYu_AbdQYwiq-133" target="HR1eYqBwxYu_AbdQYwiq-132">
          <mxGeometry relative="1" as="geometry" />
        </mxCell>
        <mxCell id="HR1eYqBwxYu_AbdQYwiq-136" style="edgeStyle=orthogonalEdgeStyle;rounded=0;orthogonalLoop=1;jettySize=auto;html=1;exitX=0.005;exitY=0.63;exitDx=0;exitDy=0;exitPerimeter=0;entryX=0.995;entryY=0.63;entryDx=0;entryDy=0;entryPerimeter=0;" edge="1" parent="HR1eYqBwxYu_AbdQYwiq-130" source="HR1eYqBwxYu_AbdQYwiq-132" target="HR1eYqBwxYu_AbdQYwiq-133">
          <mxGeometry relative="1" as="geometry" />
        </mxCell>
        <mxCell id="HR1eYqBwxYu_AbdQYwiq-137" value="" style="group" vertex="1" connectable="0" parent="HR1eYqBwxYu_AbdQYwiq-128">
          <mxGeometry x="280" y="30" width="130" height="60" as="geometry" />
        </mxCell>
        <mxCell id="HR1eYqBwxYu_AbdQYwiq-138" value="" style="rounded=1;whiteSpace=wrap;html=1;" vertex="1" parent="HR1eYqBwxYu_AbdQYwiq-137">
          <mxGeometry width="130" height="60" as="geometry" />
        </mxCell>
        <mxCell id="HR1eYqBwxYu_AbdQYwiq-139" value="" style="aspect=fixed;sketch=0;html=1;dashed=0;whitespace=wrap;fillColor=#2875E2;strokeColor=#ffffff;points=[[0.005,0.63,0],[0.1,0.2,0],[0.9,0.2,0],[0.5,0,0],[0.995,0.63,0],[0.72,0.99,0],[0.5,1,0],[0.28,0.99,0]];shape=mxgraph.kubernetes.icon2;prIcon=api" vertex="1" parent="HR1eYqBwxYu_AbdQYwiq-137">
          <mxGeometry x="10" y="10.000000000000114" width="40" height="38.4" as="geometry" />
        </mxCell>
        <mxCell id="HR1eYqBwxYu_AbdQYwiq-140" value="Geolocation Service" style="text;html=1;align=center;verticalAlign=middle;whiteSpace=wrap;rounded=0;" vertex="1" parent="HR1eYqBwxYu_AbdQYwiq-137">
          <mxGeometry x="50" y="15" width="74" height="30" as="geometry" />
        </mxCell>
        <mxCell id="HR1eYqBwxYu_AbdQYwiq-141" value="" style="group" vertex="1" connectable="0" parent="HR1eYqBwxYu_AbdQYwiq-128">
          <mxGeometry x="280" y="100" width="130" height="60" as="geometry" />
        </mxCell>
        <mxCell id="HR1eYqBwxYu_AbdQYwiq-142" value="" style="rounded=1;whiteSpace=wrap;html=1;" vertex="1" parent="HR1eYqBwxYu_AbdQYwiq-141">
          <mxGeometry width="130" height="60" as="geometry" />
        </mxCell>
        <mxCell id="HR1eYqBwxYu_AbdQYwiq-143" value="" style="aspect=fixed;sketch=0;html=1;dashed=0;whitespace=wrap;fillColor=#2875E2;strokeColor=#ffffff;points=[[0.005,0.63,0],[0.1,0.2,0],[0.9,0.2,0],[0.5,0,0],[0.995,0.63,0],[0.72,0.99,0],[0.5,1,0],[0.28,0.99,0]];shape=mxgraph.kubernetes.icon2;prIcon=api" vertex="1" parent="HR1eYqBwxYu_AbdQYwiq-141">
          <mxGeometry x="10" y="10.000000000000114" width="40" height="38.4" as="geometry" />
        </mxCell>
        <mxCell id="HR1eYqBwxYu_AbdQYwiq-144" value="Notification Service" style="text;html=1;align=center;verticalAlign=middle;whiteSpace=wrap;rounded=0;" vertex="1" parent="HR1eYqBwxYu_AbdQYwiq-141">
          <mxGeometry x="50" y="15" width="74" height="30" as="geometry" />
        </mxCell>
        <mxCell id="HR1eYqBwxYu_AbdQYwiq-145" value="" style="group" vertex="1" connectable="0" parent="HR1eYqBwxYu_AbdQYwiq-128">
          <mxGeometry x="280" y="170" width="140" height="100" as="geometry" />
        </mxCell>
        <mxCell id="HR1eYqBwxYu_AbdQYwiq-146" value="" style="rounded=1;whiteSpace=wrap;html=1;" vertex="1" parent="HR1eYqBwxYu_AbdQYwiq-145">
          <mxGeometry width="130" height="60" as="geometry" />
        </mxCell>
        <mxCell id="HR1eYqBwxYu_AbdQYwiq-147" value="" style="aspect=fixed;sketch=0;html=1;dashed=0;whitespace=wrap;fillColor=#2875E2;strokeColor=#ffffff;points=[[0.005,0.63,0],[0.1,0.2,0],[0.9,0.2,0],[0.5,0,0],[0.995,0.63,0],[0.72,0.99,0],[0.5,1,0],[0.28,0.99,0]];shape=mxgraph.kubernetes.icon2;prIcon=api" vertex="1" parent="HR1eYqBwxYu_AbdQYwiq-145">
          <mxGeometry x="10" y="10.000000000000114" width="40" height="38.4" as="geometry" />
        </mxCell>
        <mxCell id="HR1eYqBwxYu_AbdQYwiq-148" value="Payment Service" style="text;html=1;align=center;verticalAlign=middle;whiteSpace=wrap;rounded=0;" vertex="1" parent="HR1eYqBwxYu_AbdQYwiq-145">
          <mxGeometry x="50" y="15" width="74" height="30" as="geometry" />
        </mxCell>
        <mxCell id="HR1eYqBwxYu_AbdQYwiq-149" value="" style="group" vertex="1" connectable="0" parent="HR1eYqBwxYu_AbdQYwiq-128">
          <mxGeometry x="140" y="140" width="125" height="90" as="geometry" />
        </mxCell>
        <mxCell id="HR1eYqBwxYu_AbdQYwiq-150" value="" style="rounded=1;whiteSpace=wrap;html=1;container=0;" vertex="1" parent="HR1eYqBwxYu_AbdQYwiq-149">
          <mxGeometry width="125" height="90" as="geometry" />
        </mxCell>
        <mxCell id="HR1eYqBwxYu_AbdQYwiq-151" value="" style="aspect=fixed;sketch=0;html=1;dashed=0;whitespace=wrap;fillColor=#2875E2;strokeColor=#ffffff;points=[[0.005,0.63,0],[0.1,0.2,0],[0.9,0.2,0],[0.5,0,0],[0.995,0.63,0],[0.72,0.99,0],[0.5,1,0],[0.28,0.99,0]];shape=mxgraph.kubernetes.icon2;prIcon=api;container=0;" vertex="1" parent="HR1eYqBwxYu_AbdQYwiq-149">
          <mxGeometry x="74.5" y="41.600000000000136" width="40" height="38.4" as="geometry" />
        </mxCell>
        <mxCell id="HR1eYqBwxYu_AbdQYwiq-152" value="" style="aspect=fixed;sketch=0;html=1;dashed=0;whitespace=wrap;fillColor=#2875E2;strokeColor=#ffffff;points=[[0.005,0.63,0],[0.1,0.2,0],[0.9,0.2,0],[0.5,0,0],[0.995,0.63,0],[0.72,0.99,0],[0.5,1,0],[0.28,0.99,0]];shape=mxgraph.kubernetes.icon2;prIcon=api;container=0;" vertex="1" parent="HR1eYqBwxYu_AbdQYwiq-149">
          <mxGeometry x="14.5" y="41.600000000000136" width="40" height="38.4" as="geometry" />
        </mxCell>
        <mxCell id="HR1eYqBwxYu_AbdQYwiq-153" value="Review / Rating Service" style="text;html=1;align=center;verticalAlign=middle;whiteSpace=wrap;rounded=0;container=0;" vertex="1" parent="HR1eYqBwxYu_AbdQYwiq-149">
          <mxGeometry x="6" y="8" width="115" height="30" as="geometry" />
        </mxCell>
        <mxCell id="HR1eYqBwxYu_AbdQYwiq-154" style="edgeStyle=orthogonalEdgeStyle;rounded=0;orthogonalLoop=1;jettySize=auto;html=1;exitX=0.995;exitY=0.63;exitDx=0;exitDy=0;exitPerimeter=0;entryX=0.005;entryY=0.63;entryDx=0;entryDy=0;entryPerimeter=0;" edge="1" parent="HR1eYqBwxYu_AbdQYwiq-149" source="HR1eYqBwxYu_AbdQYwiq-152" target="HR1eYqBwxYu_AbdQYwiq-151">
          <mxGeometry relative="1" as="geometry" />
        </mxCell>
        <mxCell id="HR1eYqBwxYu_AbdQYwiq-155" style="edgeStyle=orthogonalEdgeStyle;rounded=0;orthogonalLoop=1;jettySize=auto;html=1;exitX=0.005;exitY=0.63;exitDx=0;exitDy=0;exitPerimeter=0;entryX=0.995;entryY=0.63;entryDx=0;entryDy=0;entryPerimeter=0;" edge="1" parent="HR1eYqBwxYu_AbdQYwiq-149" source="HR1eYqBwxYu_AbdQYwiq-151" target="HR1eYqBwxYu_AbdQYwiq-152">
          <mxGeometry relative="1" as="geometry" />
        </mxCell>
        <mxCell id="HR1eYqBwxYu_AbdQYwiq-156" value="" style="group" vertex="1" connectable="0" parent="HR1eYqBwxYu_AbdQYwiq-128">
          <mxGeometry y="140" width="125" height="89.99999999999994" as="geometry" />
        </mxCell>
        <mxCell id="HR1eYqBwxYu_AbdQYwiq-157" value="" style="rounded=1;whiteSpace=wrap;html=1;" vertex="1" parent="HR1eYqBwxYu_AbdQYwiq-156">
          <mxGeometry width="125" height="90" as="geometry" />
        </mxCell>
        <mxCell id="HR1eYqBwxYu_AbdQYwiq-158" value="" style="aspect=fixed;sketch=0;html=1;dashed=0;whitespace=wrap;fillColor=#2875E2;strokeColor=#ffffff;points=[[0.005,0.63,0],[0.1,0.2,0],[0.9,0.2,0],[0.5,0,0],[0.995,0.63,0],[0.72,0.99,0],[0.5,1,0],[0.28,0.99,0]];shape=mxgraph.kubernetes.icon2;prIcon=api" vertex="1" parent="HR1eYqBwxYu_AbdQYwiq-156">
          <mxGeometry x="74.5" y="41.60000000000002" width="40" height="38.4" as="geometry" />
        </mxCell>
        <mxCell id="HR1eYqBwxYu_AbdQYwiq-159" value="" style="aspect=fixed;sketch=0;html=1;dashed=0;whitespace=wrap;fillColor=#2875E2;strokeColor=#ffffff;points=[[0.005,0.63,0],[0.1,0.2,0],[0.9,0.2,0],[0.5,0,0],[0.995,0.63,0],[0.72,0.99,0],[0.5,1,0],[0.28,0.99,0]];shape=mxgraph.kubernetes.icon2;prIcon=api" vertex="1" parent="HR1eYqBwxYu_AbdQYwiq-156">
          <mxGeometry x="14.5" y="41.60000000000002" width="40" height="38.4" as="geometry" />
        </mxCell>
        <mxCell id="HR1eYqBwxYu_AbdQYwiq-160" value="Realtime Messaging service" style="text;html=1;align=center;verticalAlign=middle;whiteSpace=wrap;rounded=0;" vertex="1" parent="HR1eYqBwxYu_AbdQYwiq-156">
          <mxGeometry x="6" y="8" width="115" height="30" as="geometry" />
        </mxCell>
        <mxCell id="HR1eYqBwxYu_AbdQYwiq-161" style="edgeStyle=orthogonalEdgeStyle;rounded=0;orthogonalLoop=1;jettySize=auto;html=1;exitX=0.995;exitY=0.63;exitDx=0;exitDy=0;exitPerimeter=0;entryX=0.005;entryY=0.63;entryDx=0;entryDy=0;entryPerimeter=0;" edge="1" parent="HR1eYqBwxYu_AbdQYwiq-156" source="HR1eYqBwxYu_AbdQYwiq-159" target="HR1eYqBwxYu_AbdQYwiq-158">
          <mxGeometry relative="1" as="geometry" />
        </mxCell>
        <mxCell id="HR1eYqBwxYu_AbdQYwiq-162" style="edgeStyle=orthogonalEdgeStyle;rounded=0;orthogonalLoop=1;jettySize=auto;html=1;exitX=0.005;exitY=0.63;exitDx=0;exitDy=0;exitPerimeter=0;entryX=0.995;entryY=0.63;entryDx=0;entryDy=0;entryPerimeter=0;" edge="1" parent="HR1eYqBwxYu_AbdQYwiq-156" source="HR1eYqBwxYu_AbdQYwiq-158" target="HR1eYqBwxYu_AbdQYwiq-159">
          <mxGeometry relative="1" as="geometry" />
        </mxCell>
        <mxCell id="HR1eYqBwxYu_AbdQYwiq-163" value="" style="group" vertex="1" connectable="0" parent="HR1eYqBwxYu_AbdQYwiq-128">
          <mxGeometry y="30" width="125" height="90" as="geometry" />
        </mxCell>
        <mxCell id="HR1eYqBwxYu_AbdQYwiq-164" value="" style="rounded=1;whiteSpace=wrap;html=1;" vertex="1" parent="HR1eYqBwxYu_AbdQYwiq-163">
          <mxGeometry width="125" height="90" as="geometry" />
        </mxCell>
        <mxCell id="HR1eYqBwxYu_AbdQYwiq-165" value="" style="aspect=fixed;sketch=0;html=1;dashed=0;whitespace=wrap;fillColor=#2875E2;strokeColor=#ffffff;points=[[0.005,0.63,0],[0.1,0.2,0],[0.9,0.2,0],[0.5,0,0],[0.995,0.63,0],[0.72,0.99,0],[0.5,1,0],[0.28,0.99,0]];shape=mxgraph.kubernetes.icon2;prIcon=api" vertex="1" parent="HR1eYqBwxYu_AbdQYwiq-163">
          <mxGeometry x="74.5" y="41.60000000000002" width="40" height="38.4" as="geometry" />
        </mxCell>
        <mxCell id="HR1eYqBwxYu_AbdQYwiq-166" value="" style="aspect=fixed;sketch=0;html=1;dashed=0;whitespace=wrap;fillColor=#2875E2;strokeColor=#ffffff;points=[[0.005,0.63,0],[0.1,0.2,0],[0.9,0.2,0],[0.5,0,0],[0.995,0.63,0],[0.72,0.99,0],[0.5,1,0],[0.28,0.99,0]];shape=mxgraph.kubernetes.icon2;prIcon=api" vertex="1" parent="HR1eYqBwxYu_AbdQYwiq-163">
          <mxGeometry x="14.5" y="41.60000000000002" width="40" height="38.4" as="geometry" />
        </mxCell>
        <mxCell id="HR1eYqBwxYu_AbdQYwiq-167" value="User Management Service" style="text;html=1;align=center;verticalAlign=middle;whiteSpace=wrap;rounded=0;" vertex="1" parent="HR1eYqBwxYu_AbdQYwiq-163">
          <mxGeometry x="4.5" y="6" width="116.5" height="30" as="geometry" />
        </mxCell>
        <mxCell id="HR1eYqBwxYu_AbdQYwiq-168" style="edgeStyle=orthogonalEdgeStyle;rounded=0;orthogonalLoop=1;jettySize=auto;html=1;exitX=0.995;exitY=0.63;exitDx=0;exitDy=0;exitPerimeter=0;entryX=0.005;entryY=0.63;entryDx=0;entryDy=0;entryPerimeter=0;" edge="1" parent="HR1eYqBwxYu_AbdQYwiq-163" source="HR1eYqBwxYu_AbdQYwiq-166" target="HR1eYqBwxYu_AbdQYwiq-165">
          <mxGeometry relative="1" as="geometry" />
        </mxCell>
        <mxCell id="HR1eYqBwxYu_AbdQYwiq-169" style="edgeStyle=orthogonalEdgeStyle;rounded=0;orthogonalLoop=1;jettySize=auto;html=1;exitX=0.005;exitY=0.63;exitDx=0;exitDy=0;exitPerimeter=0;entryX=0.995;entryY=0.63;entryDx=0;entryDy=0;entryPerimeter=0;" edge="1" parent="HR1eYqBwxYu_AbdQYwiq-163" source="HR1eYqBwxYu_AbdQYwiq-165" target="HR1eYqBwxYu_AbdQYwiq-166">
          <mxGeometry relative="1" as="geometry" />
        </mxCell>
        <mxCell id="HR1eYqBwxYu_AbdQYwiq-171" value="" style="group" vertex="1" connectable="0" parent="1">
          <mxGeometry x="418" y="60" width="140" height="50" as="geometry" />
        </mxCell>
        <mxCell id="HR1eYqBwxYu_AbdQYwiq-21" value="" style="sketch=0;outlineConnect=0;fontColor=#232F3E;gradientColor=none;fillColor=#DD344C;strokeColor=none;dashed=0;verticalLabelPosition=bottom;verticalAlign=top;align=center;html=1;fontSize=12;fontStyle=0;aspect=fixed;pointerEvents=1;shape=mxgraph.aws4.mfa_token;" vertex="1" parent="HR1eYqBwxYu_AbdQYwiq-171">
          <mxGeometry width="48" height="48" as="geometry" />
        </mxCell>
        <mxCell id="HR1eYqBwxYu_AbdQYwiq-49" value="MFA Integration&lt;div&gt;(SMS / Email)&lt;/div&gt;" style="text;html=1;align=center;verticalAlign=middle;whiteSpace=wrap;rounded=0;" vertex="1" parent="HR1eYqBwxYu_AbdQYwiq-171">
          <mxGeometry x="48" width="92" height="50" as="geometry" />
        </mxCell>
        <mxCell id="HR1eYqBwxYu_AbdQYwiq-173" style="edgeStyle=orthogonalEdgeStyle;rounded=0;orthogonalLoop=1;jettySize=auto;html=1;exitX=0.5;exitY=0;exitDx=0;exitDy=0;entryX=0;entryY=0.5;entryDx=0;entryDy=0;" edge="1" parent="1" source="HR1eYqBwxYu_AbdQYwiq-56" target="HR1eYqBwxYu_AbdQYwiq-57">
          <mxGeometry relative="1" as="geometry" />
        </mxCell>
        <mxCell id="HR1eYqBwxYu_AbdQYwiq-176" value="" style="sketch=0;pointerEvents=1;shadow=0;dashed=0;html=1;strokeColor=none;fillColor=#505050;labelPosition=center;verticalLabelPosition=bottom;verticalAlign=top;outlineConnect=0;align=center;shape=mxgraph.office.security.federation_service;" vertex="1" parent="1">
          <mxGeometry x="681" y="168" width="61" height="65" as="geometry" />
        </mxCell>
        <mxCell id="HR1eYqBwxYu_AbdQYwiq-177" style="edgeStyle=orthogonalEdgeStyle;rounded=0;orthogonalLoop=1;jettySize=auto;html=1;" edge="1" parent="1" source="HR1eYqBwxYu_AbdQYwiq-58" target="HR1eYqBwxYu_AbdQYwiq-21">
          <mxGeometry relative="1" as="geometry" />
        </mxCell>
        <mxCell id="HR1eYqBwxYu_AbdQYwiq-178" style="edgeStyle=orthogonalEdgeStyle;rounded=0;orthogonalLoop=1;jettySize=auto;html=1;exitX=1;exitY=0.5;exitDx=0;exitDy=0;" edge="1" parent="1" source="HR1eYqBwxYu_AbdQYwiq-57" target="HR1eYqBwxYu_AbdQYwiq-176">
          <mxGeometry relative="1" as="geometry" />
        </mxCell>
        <mxCell id="HR1eYqBwxYu_AbdQYwiq-182" style="edgeStyle=orthogonalEdgeStyle;rounded=0;orthogonalLoop=1;jettySize=auto;html=1;entryX=0;entryY=0.5;entryDx=0;entryDy=0;" edge="1" parent="1" source="HR1eYqBwxYu_AbdQYwiq-180" target="HR1eYqBwxYu_AbdQYwiq-11">
          <mxGeometry relative="1" as="geometry" />
        </mxCell>
        <mxCell id="HR1eYqBwxYu_AbdQYwiq-183" style="edgeStyle=orthogonalEdgeStyle;rounded=0;orthogonalLoop=1;jettySize=auto;html=1;" edge="1" parent="1" source="HR1eYqBwxYu_AbdQYwiq-180" target="HR1eYqBwxYu_AbdQYwiq-40">
          <mxGeometry relative="1" as="geometry" />
        </mxCell>
        <mxCell id="HR1eYqBwxYu_AbdQYwiq-180" value="" style="sketch=0;outlineConnect=0;fontColor=#232F3E;gradientColor=none;fillColor=#8C4FFF;strokeColor=none;dashed=0;verticalLabelPosition=bottom;verticalAlign=top;align=center;html=1;fontSize=12;fontStyle=0;aspect=fixed;pointerEvents=1;shape=mxgraph.aws4.gateway_load_balancer;" vertex="1" parent="1">
          <mxGeometry x="237" y="581" width="50" height="50" as="geometry" />
        </mxCell>
        <mxCell id="HR1eYqBwxYu_AbdQYwiq-185" style="edgeStyle=orthogonalEdgeStyle;rounded=0;orthogonalLoop=1;jettySize=auto;html=1;entryX=0.5;entryY=1;entryDx=0;entryDy=0;" edge="1" parent="1" source="HR1eYqBwxYu_AbdQYwiq-11" target="HR1eYqBwxYu_AbdQYwiq-28">
          <mxGeometry relative="1" as="geometry" />
        </mxCell>
        <mxCell id="HR1eYqBwxYu_AbdQYwiq-186" style="edgeStyle=orthogonalEdgeStyle;rounded=0;orthogonalLoop=1;jettySize=auto;html=1;exitX=0.5;exitY=1;exitDx=0;exitDy=0;entryX=0;entryY=0.5;entryDx=0;entryDy=0;" edge="1" parent="1" source="HR1eYqBwxYu_AbdQYwiq-57" target="HR1eYqBwxYu_AbdQYwiq-28">
          <mxGeometry relative="1" as="geometry" />
        </mxCell>
        <mxCell id="HR1eYqBwxYu_AbdQYwiq-188" style="edgeStyle=orthogonalEdgeStyle;rounded=0;orthogonalLoop=1;jettySize=auto;html=1;exitX=1;exitY=0.5;exitDx=0;exitDy=0;exitPerimeter=0;entryX=0;entryY=0.5;entryDx=0;entryDy=0;" edge="1" parent="1" source="HR1eYqBwxYu_AbdQYwiq-187" target="HR1eYqBwxYu_AbdQYwiq-40">
          <mxGeometry relative="1" as="geometry" />
        </mxCell>
        <mxCell id="HR1eYqBwxYu_AbdQYwiq-187" value="" style="verticalLabelPosition=bottom;html=1;verticalAlign=top;align=center;strokeColor=none;fillColor=#00BEF2;shape=mxgraph.azure.mobile_services;pointerEvents=1;" vertex="1" parent="1">
          <mxGeometry x="67" y="294.33" width="42" height="70" as="geometry" />
        </mxCell>
        <mxCell id="HR1eYqBwxYu_AbdQYwiq-189" value="Mobile Application" style="text;html=1;align=center;verticalAlign=middle;whiteSpace=wrap;rounded=0;" vertex="1" parent="1">
          <mxGeometry x="43" y="369.33" width="90" height="30" as="geometry" />
        </mxCell>
        <mxCell id="HR1eYqBwxYu_AbdQYwiq-191" value="&lt;i&gt;Provision users&lt;/i&gt;" style="text;html=1;align=center;verticalAlign=middle;whiteSpace=wrap;rounded=0;" vertex="1" parent="1">
          <mxGeometry x="441" y="276" width="90" height="30" as="geometry" />
        </mxCell>
        <mxCell id="HR1eYqBwxYu_AbdQYwiq-192" value="&lt;i&gt;Federated Authentication&lt;/i&gt;" style="text;html=1;align=center;verticalAlign=middle;whiteSpace=wrap;rounded=0;" vertex="1" parent="1">
          <mxGeometry x="517" y="175" width="140" height="30" as="geometry" />
        </mxCell>
        <mxCell id="HR1eYqBwxYu_AbdQYwiq-193" value="&lt;i&gt;Registration / Authentication&lt;/i&gt;" style="text;html=1;align=center;verticalAlign=middle;whiteSpace=wrap;rounded=0;" vertex="1" parent="1">
          <mxGeometry x="217" y="175" width="170" height="30" as="geometry" />
        </mxCell>
        <mxCell id="HR1eYqBwxYu_AbdQYwiq-194" value="&lt;i&gt;CRUD functions&lt;/i&gt;" style="text;html=1;align=center;verticalAlign=middle;whiteSpace=wrap;rounded=0;" vertex="1" parent="1">
          <mxGeometry x="560" y="421" width="119" height="30" as="geometry" />
        </mxCell>
        <mxCell id="HR1eYqBwxYu_AbdQYwiq-195" style="edgeStyle=orthogonalEdgeStyle;rounded=0;orthogonalLoop=1;jettySize=auto;html=1;exitX=0.25;exitY=0;exitDx=0;exitDy=0;entryX=0.155;entryY=0.989;entryDx=0;entryDy=0;entryPerimeter=0;" edge="1" parent="1" source="HR1eYqBwxYu_AbdQYwiq-11" target="HR1eYqBwxYu_AbdQYwiq-57">
          <mxGeometry relative="1" as="geometry">
            <Array as="points">
              <mxPoint x="404" y="466" />
            </Array>
          </mxGeometry>
        </mxCell>
        <mxCell id="HR1eYqBwxYu_AbdQYwiq-196" value="&lt;i&gt;User management&lt;/i&gt;" style="text;html=1;align=center;verticalAlign=middle;whiteSpace=wrap;rounded=0;" vertex="1" parent="1">
          <mxGeometry x="388" y="421" width="140" height="30" as="geometry" />
        </mxCell>
        <mxCell id="HR1eYqBwxYu_AbdQYwiq-197" value="Load Balancer" style="text;html=1;align=center;verticalAlign=middle;whiteSpace=wrap;rounded=0;" vertex="1" parent="1">
          <mxGeometry x="217" y="631" width="90" height="30" as="geometry" />
        </mxCell>
      </root>
    </mxGraphModel>
  </diagram>
</mxfile>
